<?xml version="1.0" encoding="UTF-8" standalone="no"?><!DOCTYPE svg PUBLIC "-//W3C//DTD SVG 1.1//EN" "http://www.w3.org/Graphics/SVG/1.1/DTD/svg11.dtd"><svg width="100%" height="100%" viewBox="0 0 2084 2084" version="1.1" xmlns="http://www.w3.org/2000/svg" xmlns:xlink="http://www.w3.org/1999/xlink" xml:space="preserve" xmlns:serif="http://www.serif.com/" style="fill-rule:evenodd;clip-rule:evenodd;stroke-linejoin:round;stroke-miterlimit:1.5;"><path d="M534.732,1427.96c299.788,130.838 649.402,-6.328 780.241,-306.116c130.838,-299.789 -6.329,-649.403 -306.117,-780.241c-299.788,-130.838 -649.402,6.328 -780.24,306.117c-24.233,55.524 -39.273,112.758 -45.788,169.994" style="fill:none;stroke:#000;stroke-width:333.33px;"/><path d="M1177.36,1332.32c0,0 164.864,304.212 240.12,433.554c76.147,130.873 222.367,199.816 355.056,138.81c132.689,-61.006 192.036,-214.62 73.215,-391.288" style="fill:none;stroke:#000;stroke-width:333.33px;"/><path d="M1755.71,37.887l77.392,188.699c0.809,1.973 2.151,3.681 3.875,4.934c1.725,1.253 3.764,2.001 5.89,2.161l203.379,15.293l-155.548,131.916c-1.626,1.378 -2.836,3.182 -3.495,5.21c-0.658,2.027 -0.74,4.197 -0.235,6.268l48.303,198.152l-173.526,-107.171c-1.814,-1.121 -3.904,-1.714 -6.035,-1.714c-2.132,0 -4.221,0.593 -6.035,1.714l-173.526,107.171l48.303,-198.152c0.505,-2.071 0.423,-4.241 -0.236,-6.268c-0.658,-2.028 -1.868,-3.832 -3.494,-5.21l-155.548,-131.916l203.379,-15.293c2.126,-0.16 4.165,-0.908 5.889,-2.161c1.725,-1.253 3.067,-2.961 3.876,-4.934l77.392,-188.699Z"/></svg>
